<svg xmlns="http://www.w3.org/2000/svg" viewBox="14 16 176 120" width="176" height="120" fill="none" stroke="#EDF2EA" stroke-width="2.6" stroke-linejoin="round" stroke-linecap="round" role="img" aria-label="Thelemail">
	<path d="M73.9 85.1L72.8 82.9L71.8 80.7L70.7 78.5L69.7 76.4L68.7 74.4L67.8 72.4L66.8 70.4L65.9 68.5L65.1 66.6L64.3 64.7L63.5 62.9L62.7 61.2L62.0 59.5L61.3 57.8L60.7 56.1L60.1 54.5L59.6 52.9L59.1 51.3L58.7 49.7L58.3 48.2L57.9 46.7L57.6 45.2L57.4 43.7L57.2 42.3L57.1 40.8L57.0 39.4L57.0 38.0L57.0 36.6L57.1 35.2L57.3 33.8L57.5 32.4L57.8 31.0L58.2 29.6L58.7 28.2L57.3 27.8L56.8 29.2L56.3 30.6L55.9 32.1L55.6 33.5L55.3 35.0L55.1 36.4L55.0 37.9L54.9 39.4L54.9 40.9L55.0 42.5L55.1 44.0L55.3 45.6L55.5 47.1L55.8 48.7L56.1 50.3L56.5 52.0L56.9 53.6L57.4 55.3L57.9 57.0L58.5 58.8L59.1 60.6L59.7 62.4L60.4 64.2L61.1 66.1L61.9 68.0L62.7 69.9L63.5 71.9L64.4 73.9L65.3 75.9L66.2 78.0L67.1 80.2L68.1 82.4L69.1 84.6L70.1 86.9Z"/>
	<path d="M61.9 63.6 C53.5 64.9 49.7 58.6 50.1 51.0 C55.9 50.4 61.6 54.1 61.9 63.6 Z"/>
	<path d="M56.7 46.9 C52.3 40.8 55.7 35.3 61.8 32.6 C64.6 36.9 63.9 42.8 56.7 46.9 Z"/>
	<path d="M56.4 33.7 C48.5 32.5 46.8 25.8 49.3 19.1 C54.7 20.1 58.7 25.1 56.4 33.7 Z"/>
	<path d="M57.8 51.6 C54.3 57.8 48.3 57.0 43.6 52.8 C46.2 48.8 51.5 47.1 57.8 51.6 Z"/>
	<circle cx="58.0" cy="24.0" r="4.2"/>
	<circle cx="63.0" cy="38.9" r="3.4"/>
	<path d="M89.7 81.2L91.5 78.6L93.2 76.1L95.0 73.6L96.8 71.3L98.6 69.0L100.5 66.8L102.4 64.7L104.3 62.7L106.2 60.7L108.2 58.8L110.2 57.0L112.2 55.3L114.2 53.6L116.2 52.0L118.3 50.5L120.4 49.1L122.5 47.7L124.6 46.4L126.7 45.2L128.9 44.0L131.0 42.9L133.2 41.9L135.4 40.9L137.6 40.0L139.8 39.2L142.0 38.4L144.3 37.7L146.5 37.1L148.7 36.6L151.0 36.1L153.3 35.6L155.5 35.3L157.8 34.9L160.1 34.7L159.9 33.3L157.6 33.5L155.3 33.7L153.0 34.0L150.7 34.4L148.4 34.8L146.0 35.3L143.7 35.8L141.4 36.5L139.1 37.2L136.8 37.9L134.5 38.8L132.3 39.7L130.0 40.7L127.7 41.7L125.5 42.8L123.2 44.0L121.0 45.3L118.8 46.7L116.6 48.1L114.4 49.6L112.3 51.1L110.1 52.8L108.0 54.5L105.9 56.3L103.8 58.2L101.8 60.2L99.7 62.2L97.7 64.4L95.8 66.6L93.8 68.9L91.9 71.2L90.0 73.7L88.1 76.2L86.3 78.8Z"/>
	<path d="M105.0 59.5 C97.5 56.8 97.2 49.9 100.9 43.8 C106.0 45.8 109.0 51.5 105.0 59.5 Z"/>
	<path d="M121.8 46.5 C120.0 39.2 125.3 35.4 132.1 35.3 C133.0 40.3 130.0 45.6 121.8 46.5 Z"/>
	<path d="M137.2 39.0 C139.8 32.4 145.8 32.3 151.1 35.8 C149.1 40.2 144.1 42.6 137.2 39.0 Z"/>
	<path d="M115.3 50.8 C109.8 54.3 105.3 51.0 103.3 45.5 C107.1 43.3 112.3 44.3 115.3 50.8 Z"/>
	<path d="M132.7 40.8 C126.3 41.8 123.4 37.0 123.7 31.2 C128.1 30.7 132.4 33.6 132.7 40.8 Z"/>
	<circle cx="166.0" cy="34.0" r="4.2"/>
	<circle cx="150.5" cy="27.7" r="3.4"/>
	<circle cx="95.1" cy="58.6" r="3.0"/>
	<path d="M65.8 98.4L65.0 101.0L64.3 103.3L63.7 105.4L63.1 107.3L62.7 109.0L62.3 110.6L61.9 112.0L61.6 113.4L61.3 114.8L61.0 116.1L60.8 117.4L60.5 118.8L60.2 120.2L60.0 121.8L59.6 123.4L59.3 125.3L58.8 127.3L58.4 129.5L61.6 130.5L62.4 128.3L63.1 126.4L63.8 124.6L64.4 123.1L65.0 121.6L65.6 120.3L66.1 119.1L66.6 117.9L67.2 116.7L67.8 115.5L68.4 114.3L69.0 113.0L69.7 111.5L70.4 110.0L71.2 108.2L72.1 106.2L73.1 104.0L74.2 101.6Z"/>
	<path d="M79.9 103.8L81.0 105.9L81.9 107.8L82.8 109.5L83.6 111.0L84.3 112.4L85.0 113.6L85.5 114.7L86.0 115.8L86.5 116.9L87.0 117.9L87.4 119.0L87.8 120.1L88.2 121.4L88.6 122.8L89.0 124.4L89.4 126.1L89.8 128.1L90.3 130.2L93.7 129.8L93.5 127.5L93.4 125.5L93.3 123.7L93.2 122.1L93.1 120.5L93.0 119.1L92.8 117.8L92.7 116.4L92.5 115.1L92.3 113.8L92.0 112.5L91.6 111.1L91.2 109.7L90.8 108.1L90.3 106.4L89.6 104.6L88.9 102.5L88.1 100.2Z"/>
	<path d="M117.8 98.4L117.0 101.0L116.3 103.3L115.7 105.4L115.1 107.3L114.7 109.0L114.3 110.6L113.9 112.0L113.6 113.4L113.3 114.8L113.0 116.1L112.8 117.4L112.5 118.8L112.2 120.2L112.0 121.8L111.6 123.4L111.3 125.3L110.8 127.3L110.4 129.5L113.6 130.5L114.4 128.3L115.1 126.4L115.8 124.6L116.4 123.1L117.0 121.6L117.6 120.3L118.1 119.1L118.6 117.9L119.2 116.7L119.8 115.5L120.4 114.3L121.0 113.0L121.7 111.5L122.4 110.0L123.2 108.2L124.1 106.2L125.1 104.0L126.2 101.6Z"/>
	<path d="M131.9 99.8L133.3 102.6L134.6 105.1L135.7 107.3L136.7 109.2L137.6 110.9L138.4 112.5L139.1 113.9L139.7 115.2L140.3 116.4L140.8 117.6L141.3 118.8L141.7 120.0L142.1 121.4L142.6 122.8L143.0 124.4L143.4 126.1L143.8 128.1L144.3 130.2L147.7 129.8L147.5 127.5L147.4 125.5L147.3 123.7L147.1 122.0L147.0 120.4L146.9 118.9L146.7 117.5L146.5 116.0L146.2 114.6L145.9 113.1L145.5 111.5L145.0 109.9L144.5 108.1L143.8 106.2L143.1 104.0L142.2 101.7L141.2 99.1L140.1 96.2Z"/>
	<path d="M32.4 95.8L33.9 94.3L35.4 93.0L36.8 91.8L38.3 90.7L39.8 89.7L41.2 88.8L42.7 88.0L44.1 87.3L45.6 86.7L47.0 86.2L48.4 85.8L49.8 85.5L51.2 85.2L52.5 85.0L53.8 84.7L55.1 84.4L56.4 84.2L57.7 84.1L59.1 84.0L60.4 84.0L61.8 84.1L63.1 84.1L64.5 84.3L65.9 84.5L67.3 84.7L68.7 85.0L70.1 85.4L71.5 85.8L73.0 86.3L74.4 86.8L75.9 87.3L77.3 87.9L78.8 88.6L80.4 89.3L81.9 89.9L83.4 90.5L84.9 91.2L86.3 91.8L87.8 92.4L89.2 93.0L90.7 93.6L92.1 94.2L93.6 94.8L95.0 95.4L96.5 95.9L98.0 96.5L99.5 97.0L100.9 97.5L102.5 98.1L104.0 98.5L105.5 99.0L107.1 99.4L108.7 99.8L110.4 100.2L112.0 100.5L113.7 100.8L115.4 101.0L117.1 101.2L118.9 101.4L120.7 101.5L122.5 101.5L124.4 101.5L126.2 101.5L128.1 101.3L130.1 101.2L132.0 100.9L134.0 100.6L136.1 100.2L138.1 99.8L139.9 99.4L141.6 98.9L143.4 98.3L145.1 97.7L146.9 97.0L148.6 96.3L150.3 95.5L151.9 94.7L153.6 93.9L155.2 93.0L156.8 92.0L158.4 91.0L159.9 90.0L161.5 88.9L162.9 87.7L164.4 86.5L165.8 85.3L167.1 83.9L168.5 82.6L169.7 81.1L170.9 79.6L172.1 78.1L173.2 76.5L174.2 74.9L175.2 73.1L176.1 71.4L177.0 69.6L177.8 67.7L178.5 65.8L179.1 63.8L179.7 61.8L180.1 59.8L180.5 57.8L180.8 55.8L181.0 53.7L181.1 51.7L181.0 49.7L180.8 47.8L180.4 45.9L180.0 44.0L179.4 42.3L178.7 40.6L177.9 38.9L177.0 37.4L176.1 35.9L175.0 34.5L173.9 33.2L172.7 32.0L171.5 30.9L170.1 29.9L168.8 28.9L167.4 28.1L165.9 27.4L164.4 26.7L162.9 26.2L161.4 25.8L159.8 25.4L158.2 25.2L156.7 25.1L155.1 25.0L153.5 25.1L151.9 25.3L150.3 25.6L148.7 26.0L147.2 26.5L145.7 27.1L144.1 27.8L142.9 28.6L142.0 29.3L141.1 30.1L140.3 30.9L139.5 31.7L138.8 32.6L138.2 33.5L137.7 34.4L137.2 35.3L136.8 36.3L136.5 37.2L136.2 38.2L136.0 39.1L135.9 40.1L135.9 41.0L135.9 42.0L136.0 42.9L136.1 43.8L136.3 44.7L136.6 45.5L136.9 46.3L137.3 47.1L137.7 47.9L138.2 48.7L138.7 49.4L139.3 50.0L140.0 50.6L140.7 51.2L141.4 51.8L142.2 52.2L143.0 52.7L143.9 53.1L144.8 53.4L145.7 53.7L146.3 52.3L145.5 51.8L144.8 51.3L144.2 50.8L143.6 50.3L143.1 49.8L142.6 49.2L142.2 48.6L141.9 48.1L141.6 47.5L141.3 46.9L141.2 46.3L141.0 45.7L140.9 45.1L140.9 44.6L140.9 44.0L140.9 43.4L141.0 42.9L141.1 42.3L141.3 41.8L141.5 41.3L141.8 40.8L142.1 40.3L142.4 39.9L142.7 39.4L143.1 39.0L143.5 38.6L144.0 38.2L144.5 37.8L145.0 37.5L145.5 37.2L146.1 36.9L146.7 36.6L147.4 36.3L147.9 36.2L148.8 36.0L149.8 35.8L150.7 35.7L151.7 35.6L152.6 35.7L153.5 35.8L154.4 35.9L155.2 36.1L156.0 36.4L156.8 36.7L157.6 37.1L158.3 37.5L159.0 37.9L159.6 38.4L160.2 39.0L160.8 39.5L161.4 40.1L161.9 40.8L162.3 41.4L162.7 42.1L163.1 42.8L163.4 43.5L163.7 44.3L163.9 45.0L164.1 45.8L164.2 46.6L164.3 47.5L164.3 48.3L164.3 49.2L164.2 50.1L164.1 51.1L164.0 52.0L163.8 53.0L163.5 54.2L163.1 55.7L162.7 57.0L162.2 58.3L161.7 59.5L161.2 60.7L160.6 61.8L160.0 62.8L159.4 63.9L158.7 64.9L158.0 65.8L157.3 66.7L156.5 67.6L155.7 68.4L154.8 69.2L154.0 70.0L153.1 70.8L152.1 71.5L151.1 72.2L150.1 72.8L149.1 73.5L148.0 74.1L146.9 74.7L145.8 75.2L144.6 75.7L143.4 76.2L142.2 76.7L141.0 77.2L139.7 77.6L138.4 78.0L137.1 78.3L135.8 78.7L134.5 79.1L133.1 79.5L131.9 79.8L130.5 80.0L129.1 80.3L127.7 80.5L126.4 80.6L125.1 80.7L123.8 80.8L122.6 80.8L121.4 80.8L120.2 80.8L119.0 80.7L117.9 80.6L116.7 80.4L115.6 80.3L114.4 80.1L113.3 79.8L112.1 79.6L111.0 79.3L109.8 78.9L108.6 78.6L107.4 78.2L106.1 77.8L104.9 77.4L103.6 76.9L102.3 76.4L101.0 75.9L99.6 75.4L98.3 74.9L96.9 74.3L95.4 73.7L93.9 73.1L92.4 72.5L90.9 71.9L89.3 71.3L87.6 70.7L85.7 70.1L83.6 69.5L81.6 68.9L79.5 68.4L77.4 68.0L75.4 67.7L73.3 67.4L71.3 67.2L69.2 67.1L67.1 67.0L65.1 67.0L63.1 67.1L61.0 67.3L59.0 67.5L57.0 67.8L55.0 68.3L53.1 68.8L51.1 69.4L49.2 70.0L47.3 70.8L45.5 71.8L43.8 72.9L42.1 74.1L40.5 75.4L39.0 76.8L37.5 78.2L36.0 79.7L34.7 81.3L33.3 82.9L32.1 84.7L30.9 86.5L29.7 88.3L28.6 90.3L27.6 92.2Z"/>
	<circle cx="46" cy="84" r="2.6" fill="#EDF2EA" stroke="none"/>
	<path d="M18 134H182"/>
</svg>